<svg width="24" height="24" viewBox="0 0 24 24" fill="none" xmlns="http://www.w3.org/2000/svg">
<path d="M11.25 17.25H12.75L12 18L11.25 17.25Z" fill="#A08B7A"/>
<path d="M18 6.5C18 6.36739 17.9473 6.24021 17.8536 6.14645C17.7598 6.05268 17.6326 6 17.5 6" fill="#A08B7A"/>
<path d="M20.69 9.67001C21.14 9.21926 21.4892 8.67811 21.7146 8.08233C21.9399 7.48656 22.0362 6.84974 21.997 6.21398C21.9579 5.57822 21.7842 4.95802 21.4875 4.39438C21.1908 3.83074 20.7779 3.33651 20.2759 2.94437C19.774 2.55223 19.1945 2.27111 18.5758 2.11962C17.9571 1.96812 17.3134 1.94969 16.687 2.06554C16.0607 2.1814 15.4661 2.4289 14.9425 2.79168C14.419 3.15447 13.9784 3.62426 13.65 4.17001C12.5609 3.95048 11.439 3.95048 10.35 4.17001C10.0215 3.62426 9.58093 3.15447 9.05738 2.79168C8.53382 2.4289 7.93922 2.1814 7.31289 2.06554C6.68655 1.94969 6.04276 1.96812 5.42408 2.11962C4.8054 2.27111 4.22593 2.55223 3.72399 2.94437C3.22205 3.33651 2.80908 3.83074 2.51238 4.39438C2.21568 4.95802 2.04203 5.57822 2.00289 6.21398C1.96375 6.84974 2.06003 7.48656 2.28535 8.08233C2.51067 8.67811 2.8599 9.21926 3.30995 9.67001C2.48995 11.2 1.99995 12.88 1.99995 14.5C1.99995 19.47 6.47995 22 12 22C17.52 22 22 19.47 22 14.5C22 12.88 21.52 11.2 20.7 9.67001" fill="#A08B7A"/>
<path d="M6.00003 6.50003C5.99936 6.43418 6.01183 6.36886 6.03672 6.3079C6.06161 6.24693 6.09842 6.19154 6.14498 6.14498C6.19155 6.09842 6.24693 6.06161 6.3079 6.03672C6.36886 6.01183 6.43418 5.99936 6.50003 6.00003" fill="#A08B7A"/>
<path d="M15 12V13.5M18 6.5C18 6.36739 17.9473 6.24021 17.8536 6.14645C17.7598 6.05268 17.6326 6 17.5 6M20.69 9.67001C21.14 9.21926 21.4892 8.67811 21.7146 8.08233C21.9399 7.48656 22.0362 6.84974 21.997 6.21398C21.9579 5.57822 21.7842 4.95802 21.4875 4.39438C21.1908 3.83074 20.7779 3.33651 20.2759 2.94437C19.774 2.55223 19.1945 2.27111 18.5758 2.11962C17.9571 1.96812 17.3134 1.94969 16.687 2.06554C16.0607 2.1814 15.4661 2.4289 14.9425 2.79168C14.419 3.15447 13.9784 3.62426 13.65 4.17001C12.5609 3.95048 11.439 3.95048 10.35 4.17001C10.0215 3.62426 9.58093 3.15447 9.05738 2.79168C8.53382 2.4289 7.93922 2.1814 7.31289 2.06554C6.68655 1.94969 6.04276 1.96812 5.42408 2.11962C4.8054 2.27111 4.22593 2.55223 3.72399 2.94437C3.22205 3.33651 2.80908 3.83074 2.51238 4.39438C2.21568 4.95802 2.04203 5.57822 2.00289 6.21398C1.96375 6.84974 2.06003 7.48656 2.28535 8.08233C2.51067 8.67811 2.8599 9.21926 3.30995 9.67001C2.48995 11.2 1.99995 12.88 1.99995 14.5C1.99995 19.47 6.47995 22 12 22C17.52 22 22 19.47 22 14.5C22 12.88 21.52 11.2 20.7 9.67001M6.00003 6.50003C5.99936 6.43418 6.01183 6.36886 6.03672 6.3079C6.06161 6.24693 6.09842 6.19154 6.14498 6.14498C6.19155 6.09842 6.24693 6.06161 6.3079 6.03672C6.36886 6.01183 6.43418 5.99936 6.50003 6.00003M9 12V13.5M11.25 17.25H12.75L12 18L11.25 17.25Z" stroke="#3A3441" stroke-width="1.5" stroke-linecap="round" stroke-linejoin="round"/>
</svg>
